<svg width="169" height="169" viewBox="0 0 169 169" fill="none" xmlns="http://www.w3.org/2000/svg">
<path d="M88.7241 44.4324L96.7402 71.7718L114.218 46.0661C114.802 45.2012 115.255 44.6406 115.576 44.3844C115.897 44.1281 116.248 44 116.627 44C117.007 44 117.372 44.1281 117.722 44.3844C118.073 44.6086 118.526 45.1692 119.08 46.0661L135.376 71.4835L143.26 44.4324H168.316L145.451 119.195C144.983 120.765 144.268 121.95 143.304 122.751C142.37 123.584 141.348 124 140.238 124C137.96 124 135.901 122.527 134.061 119.58L114.481 88.5886L93.4111 119.676C92.535 120.957 91.5567 121.966 90.4762 122.703C89.4249 123.439 88.359 123.808 87.2785 123.808C86.198 123.808 85.1759 123.423 84.2122 122.655C83.2777 121.918 82.5185 120.701 81.9344 119.003L57.3164 44.4324H88.7241Z" fill="white"/>
<path d="M34.8145 124.404C28.0111 124.404 21.9889 123.379 16.748 121.328C11.5072 119.277 7.4056 116.071 4.44336 111.709C1.48112 107.347 0 101.715 0 94.8145V87.3926L27.0996 83.6816V91.2012C27.0996 94.3587 27.7507 96.7025 29.0527 98.2324C30.3874 99.7298 31.901 100.479 33.5938 100.479C35.3516 100.479 36.9466 99.6322 38.3789 97.9395C39.8112 96.2142 40.5273 93.8704 40.5273 90.9082V44.5215H71.6309V82.2168C71.6309 90.2246 70.6868 96.9303 68.7988 102.334C66.9434 107.738 64.3392 112.067 60.9863 115.322C57.6335 118.545 53.7272 120.872 49.2676 122.305C44.8079 123.704 39.9902 124.404 34.8145 124.404Z" fill="white"/>
</svg>
