<svg width="169" height="169" viewBox="0 0 169 169" fill="none" xmlns="http://www.w3.org/2000/svg">
<g clip-path="url(#clip0_3385_2)">
<path d="M116.627 43.5C117.118 43.5 117.575 43.6659 117.991 43.9639C117.993 43.9652 117.996 43.9664 117.998 43.9678C118.004 43.9723 118.011 43.9759 118.018 43.9805L118.017 43.9814C118.25 44.1369 118.483 44.3734 118.714 44.6592C118.958 44.9612 119.222 45.344 119.506 45.8027H119.505L135.203 70.2871L142.78 44.293L142.886 43.9326H168.992L168.795 44.5791L145.929 119.342C145.442 120.975 144.683 122.256 143.624 123.136L143.623 123.135C142.613 124.03 141.481 124.5 140.238 124.5C137.71 124.5 135.518 122.857 133.639 119.847L114.466 89.5L93.8252 119.956L93.8242 119.958C92.9194 121.281 91.8984 122.338 90.7578 123.116L90.7568 123.115C89.6394 123.897 88.4776 124.308 87.2783 124.308C86.0689 124.308 84.9394 123.875 83.9004 123.046V123.045C82.8627 122.226 82.0619 120.91 81.4619 119.166L81.46 119.16L56.8418 44.5889L56.625 43.9326H89.0986L89.2041 44.292L96.9219 70.6152L113.805 45.7852C114.386 44.9241 114.877 44.3027 115.265 43.9932C115.666 43.6728 116.125 43.5001 116.627 43.5Z" fill="#333333" stroke="#333333"/>
<path d="M72.1309 44.0215V82.2168C72.1309 90.2601 71.1828 97.0259 69.2705 102.499C67.3952 107.959 64.7547 112.36 61.335 115.681L61.333 115.683C57.925 118.958 53.9523 121.325 49.4209 122.78L49.417 122.782C44.9041 124.199 40.0355 124.904 34.8145 124.904C27.9614 124.904 21.8751 123.872 16.5654 121.794C11.2373 119.709 7.0521 116.441 4.0293 111.99C0.995757 107.523 -0.5 101.785 -0.5 94.8145V86.9561L-0.0673828 86.8975L27.0322 83.1865L27.5996 83.1084V91.2012C27.5996 94.3019 28.2407 96.5048 29.4307 97.9053C30.6884 99.3141 32.0721 99.9785 33.5938 99.9785C35.1674 99.9785 36.6329 99.2284 37.9971 97.6162C39.3318 96.0063 40.0273 93.7894 40.0273 90.9082V44.0215H72.1309Z" fill="#333333" stroke="#333333"/>
</g>
<defs>
<clipPath id="clip0_3385_2">
<rect width="169" height="169" fill="white"/>
</clipPath>
</defs>
</svg>
